<?xml version="1.0" encoding="utf-8"?>
<!-- Generator: Adobe Illustrator 24.3.0, SVG Export Plug-In . SVG Version: 6.00 Build 0)  -->
<svg version="1.1" xmlns="http://www.w3.org/2000/svg" xmlns:xlink="http://www.w3.org/1999/xlink" x="0px" y="0px"
	 viewBox="0 0 686 402" style="enable-background:new 0 0 686 402;" xml:space="preserve">
<style type="text/css">
	.st0{display:none;}
	.st1{display:inline;fill:#02687F;}
	.st2{display:inline;opacity:0.65;}
	.st3{opacity:0.65;}
	.st4{opacity:0.12;clip-path:url(#SVGID_2_);fill:#D4E3FC;}
	.st5{opacity:0.2;clip-path:url(#SVGID_2_);fill:#D4E3FC;}
	.st6{opacity:0.86;clip-path:url(#SVGID_4_);fill:#F1FAEE;}
	.st7{clip-path:url(#SVGID_4_);}
	.st8{fill:#457B9D;}
	.st9{opacity:0.15;clip-path:url(#SVGID_6_);}
	.st10{fill:#008196;}
	.st11{clip-path:url(#SVGID_6_);}
	.st12{fill:#CBECE5;}
	.st13{opacity:0.36;}
	.st14{fill:#FFFFFF;}
	.st15{fill:none;stroke:#FFFFFF;stroke-miterlimit:10;}
	.st16{opacity:0.2;fill:#008196;}
	.st17{fill:#FAF4DA;}
	.st18{fill:#1D3557;}
	.st19{fill:none;stroke:#008196;stroke-miterlimit:10;}
	.st20{fill:#44275D;}
</style>
<g id="BACKGROUND" class="st0">
	<rect x="-64" y="-46" class="st1" width="750" height="500"/>
	<g class="st2">
		<defs>
			<polygon id="SVGID_1_" class="st3" points="690.97,-45.74 691,450.24 -62.33,454 -62.33,301.67 -61.94,-46 			"/>
		</defs>
		<clipPath id="SVGID_2_">
			<use xlink:href="#SVGID_1_"  style="overflow:visible;"/>
		</clipPath>
		<path class="st4" d="M162.22,319.65c0-14.6-2.44-28.36-7.38-40.28c-11.48-27.74-29.57-41.73-42.72-48.57
			c-22.55-11.73-44.05-14.37-60.55-7.44c-17.61,7.4-23.83,22.72-30.42,38.94c-6,14.78-12.21,30.06-27.66,39.75
			c-13.91,8.73-27.51,3.95-41.9-1.1c-14.26-5.01-29.01-10.19-45.3-2.56c-17.29,8.1-31.38,26.9-32.76,43.74
			c-1,12.28,4.19,27.07,15.03,42.8c10.69,15.51,25.86,30.51,43.87,43.38c48.47,34.63,102.99,44.54,145.85,26.51
			c31.09-13.08,57.38-41.3,72.12-77.42C158.25,358.19,162.22,338.24,162.22,319.65z"/>
		<path class="st4" d="M526.18,59.89c0-14.6-2.44-28.36-7.38-40.28c-11.48-27.74-29.57-41.73-42.72-48.57
			c-22.55-11.73-44.05-14.37-60.55-7.44c-17.61,7.4-23.83,22.72-30.42,38.94c-6,14.78-12.21,30.06-27.66,39.75
			c-13.91,8.73-27.51,3.95-41.9-1.1c-14.26-5.01-29.01-10.19-45.3-2.56c-17.29,8.1-31.38,26.9-32.76,43.74
			c-1,12.28,4.19,27.07,15.03,42.8c10.69,15.51,25.86,30.51,43.87,43.38c48.47,34.63,102.99,44.54,145.85,26.51
			c31.09-13.08,57.38-41.3,72.12-77.42C522.22,98.43,526.18,78.48,526.18,59.89z"/>
		<path class="st4" d="M150.2,0.75c0-14.6-2.44-28.36-7.38-40.28c-11.48-27.74-29.57-41.73-42.72-48.57
			c-22.55-11.73-44.05-14.37-60.55-7.44c-17.61,7.4-23.83,22.72-30.42,38.94c-6,14.78-12.21,30.06-27.66,39.75
			c-13.91,8.73-27.51,3.95-41.9-1.1c-14.26-5.01-29.01-10.19-45.3-2.56c-17.29,8.1-31.38,26.9-32.76,43.74
			c-1,12.28,4.19,27.07,15.03,42.8c10.69,15.51,25.86,30.51,43.87,43.38c48.47,34.63,102.99,44.54,145.85,26.51
			c31.09-13.08,57.38-41.3,72.12-77.42C146.23,39.29,150.2,19.34,150.2,0.75z"/>
		<path class="st5" d="M145.63,292.74c-1.05,0-2.09-0.04-3.11-0.12c-17.2-1.38-36.39-15.47-44.66-32.77
			c-7.81-16.34-2.54-31.06,2.56-45.3c5.06-14.12,9.83-27.45,1.17-40.99c-9.68-15.13-25.03-21.25-39.86-27.16
			c-16.49-6.57-32.07-12.78-39.64-30.43c-7.07-16.5-4.4-37.97,7.53-60.45c6.96-13.11,21.17-31.14,49.35-42.57l0,0
			c27.52-11.16,64.69-9.52,99.43,4.38c36.62,14.66,65.24,40.81,78.51,71.73c9.79,22.82,11.66,48.22,5.55,75.5
			c-5.3,23.66-16.5,47.69-32.39,69.5C204.15,269.62,170.69,292.73,145.63,292.74z M119.87,6.18c-14.74,0-28.64,2.42-40.68,7.3
			c-28.02,11.36-42.14,29.28-49.05,42.3c-11.85,22.33-14.52,43.62-7.51,59.96c7.47,17.43,22.94,23.6,39.32,30.12
			c14.92,5.95,30.36,12.09,40.14,27.39c8.81,13.78,3.99,27.24-1.11,41.49c-5.06,14.12-10.29,28.73-2.58,44.86
			c8.18,17.12,27.17,31.07,44.17,32.44c12.4,1,27.34-4.15,43.22-14.89c15.66-10.59,30.81-25.61,43.81-43.44
			c34.97-47.99,44.98-101.98,26.77-144.43c-13.21-30.78-41.71-56.82-78.19-71.42C158.79,10.11,138.65,6.18,119.87,6.18z"/>
		<path class="st5" d="M374.67,455.53c-0.92,0.5-1.85,0.96-2.79,1.37c-15.75,6.97-39.42,3.75-55.06-7.49
			c-14.78-10.62-17.3-26.03-19.74-40.94c-2.42-14.78-4.7-28.75-18.87-36.5c-15.83-8.66-32.26-6.72-48.14-4.84
			c-17.65,2.09-34.33,4.06-49.54-7.82c-14.21-11.1-22.28-31.2-22.73-56.6c-0.26-14.81,3.45-37.38,22.62-60.82l0,0
			c18.71-22.88,52.11-39.14,89.32-43.47c39.23-4.57,77.02,4.74,103.66,25.54c19.66,15.35,33.63,36.74,41.51,63.56
			c6.84,23.27,8.68,49.67,5.33,76.36C414.77,407.41,396.65,443.6,374.67,455.53z M213.01,216.49
			c-12.93,7.01-23.94,15.75-32.13,25.76c-19.05,23.3-22.74,45.73-22.48,60.44c0.45,25.22,8.44,45.16,22.51,56.15
			c15.01,11.73,31.57,9.77,49.1,7.7c15.97-1.89,32.49-3.84,48.49,4.91c14.42,7.89,16.72,21.99,19.16,36.91
			c2.42,14.79,4.92,30.09,19.5,40.57c15.48,11.12,38.91,14.32,54.48,7.43c11.36-5.02,21.96-16.65,30.68-33.62
			c8.6-16.74,14.59-37.12,17.33-58.94c7.38-58.73-10.05-110.84-46.62-139.39c-26.52-20.71-64.15-29.98-103.23-25.42
			C249.04,201.41,229.48,207.55,213.01,216.49z"/>
		<path class="st4" d="M526.22,319.65c0-14.6-2.44-28.36-7.38-40.28c-11.48-27.74-29.57-41.73-42.72-48.57
			c-22.55-11.73-44.05-14.37-60.55-7.44c-17.61,7.4-23.83,22.72-30.42,38.94c-6,14.78-12.21,30.06-27.66,39.75
			c-13.91,8.73-27.51,3.95-41.9-1.1c-14.26-5.01-29.01-10.19-45.3-2.56c-17.29,8.1-31.38,26.9-32.76,43.74
			c-1,12.28,4.19,27.07,15.03,42.8c10.69,15.51,25.86,30.51,43.87,43.38c48.47,34.63,102.99,44.54,145.85,26.51
			c31.09-13.08,57.38-41.3,72.12-77.42C522.25,358.19,526.22,338.24,526.22,319.65z"/>
		<path class="st4" d="M900.18-18.11c0-14.6-2.44-28.36-7.38-40.28c-11.48-27.74-29.57-41.73-42.72-48.57
			c-22.55-11.73-44.05-14.37-60.55-7.44c-17.61,7.4-23.83,22.72-30.42,38.94c-6,14.78-12.21,30.06-27.66,39.75
			c-13.91,8.73-27.51,3.95-41.9-1.1c-14.26-5.01-29.01-10.19-45.3-2.56c-17.29,8.1-31.38,26.9-32.76,43.74
			c-1,12.28,4.19,27.07,15.03,42.8c10.69,15.51,25.86,30.51,43.87,43.38c48.47,34.63,102.99,44.54,145.85,26.51
			c31.09-13.08,57.38-41.3,72.12-77.42C896.22,20.43,900.18,0.48,900.18-18.11z"/>
		<path class="st5" d="M483.87,6.18c-14.74,0-28.64,2.42-40.68,7.3c-28.02,11.36-42.14,29.28-49.05,42.3
			c-11.85,22.33-14.52,43.62-7.51,59.96c7.47,17.43,22.94,23.6,39.32,30.12c14.93,5.95,30.36,12.09,40.14,27.39
			c8.81,13.78,3.99,27.24-1.11,41.49c-5.06,14.12-10.29,28.73-2.58,44.86c8.18,17.12,27.17,31.07,44.17,32.44
			c12.4,1,27.34-4.15,43.22-14.89c15.66-10.59,30.81-25.61,43.81-43.44c34.97-47.99,44.98-101.98,26.77-144.43
			c-13.21-30.78-41.71-56.82-78.19-71.42C522.79,10.11,502.65,6.18,483.87,6.18z"/>
		<path class="st5" d="M738.67,455.53c-0.92,0.5-1.85,0.96-2.79,1.37c-15.75,6.97-39.42,3.75-55.06-7.49
			c-14.78-10.62-17.3-26.03-19.74-40.94c-2.42-14.78-4.7-28.75-18.87-36.5c-15.83-8.66-32.26-6.72-48.14-4.84
			c-17.65,2.09-34.33,4.06-49.54-7.82c-14.21-11.1-22.28-31.2-22.73-56.6c-0.26-14.81,3.45-37.38,22.61-60.82l0,0
			c18.71-22.88,52.11-39.14,89.32-43.47c39.23-4.57,77.02,4.74,103.66,25.54c19.66,15.35,33.63,36.74,41.51,63.56
			c6.84,23.27,8.68,49.67,5.33,76.36C778.77,407.41,760.65,443.6,738.67,455.53z M577.01,216.49
			c-12.93,7.01-23.94,15.75-32.13,25.76c-19.05,23.3-22.74,45.73-22.48,60.44c0.45,25.22,8.44,45.16,22.51,56.15
			c15.01,11.73,31.57,9.77,49.1,7.7c15.97-1.89,32.49-3.84,48.49,4.91c14.42,7.89,16.72,21.99,19.16,36.91
			c2.42,14.79,4.92,30.09,19.5,40.57c15.48,11.12,38.91,14.32,54.48,7.43c11.36-5.02,21.96-16.65,30.68-33.62
			c8.6-16.74,14.59-37.12,17.33-58.94c7.38-58.73-10.05-110.84-46.62-139.39c-26.52-20.71-64.15-29.98-103.23-25.42
			C613.04,201.41,593.48,207.55,577.01,216.49z"/>
	</g>
</g>
<g id="OBJECTS">
	<g>
		<g>
			<g>
				<defs>
					<path id="SVGID_3_" d="M686,409L24.78,395.45c-6.5,0-11.78-5.27-11.78-11.78V12.33c0-6.5,5.27-11.78,11.78-11.78L692,0
						c5.96,0.15-7.8,9-6,15v363C687.52,388.04,686,409,686,409z"/>
				</defs>
				<clipPath id="SVGID_4_">
					<use xlink:href="#SVGID_3_"  style="overflow:visible;"/>
				</clipPath>
				<path class="st6" d="M495.45-1l329.83,1c28.23,0,72.99,12.19,90.17,35.1c36.77,49.02,61.64,173.82-61.84,222.28
					c-163.23,64.07-77.44,183.29-221.17,183.29c-146.03,0-104.92-91.33-154.87-95.82c-21.27-1.91-50.12-1.79-78.46-0.83
					c-45.09,1.52-80.5-38.41-73.3-82.94c2.08-12.85,2.57-24.62,0.23-33.22c-10.03-36.77-78.46-19.35-92.19-108.02
					C224.02,56.44,270.76-1,324.02-1C377.59-1,495.45-1,495.45-1z"/>
				<g class="st7">
					<g>
						<g>
							<circle class="st8" cx="550" cy="300" r="166.5"/>
						</g>
					</g>
					<g>
						<defs>
							<circle id="SVGID_5_" cx="550" cy="300" r="166.5"/>
						</defs>
						<clipPath id="SVGID_6_">
							<use xlink:href="#SVGID_5_"  style="overflow:visible;"/>
						</clipPath>
						<g class="st9">
							<g>
								<g>
									<path class="st10" d="M474.28,364.06h5.3c-0.74,0-1.46-0.11-2.15-0.28C476.4,363.95,475.35,364.06,474.28,364.06z"/>
									<g>
										<path class="st10" d="M537.35,244.83H501h-1.32v-0.13c-4.49-0.65-7.95-4.47-7.95-9.14c0-4.67,3.46-8.49,7.95-9.14v-0.2
											c11.32-0.76,20.13-11.08,18.31-22.91c-1.51-9.8-10.4-16.76-20.31-16.76h-78.1c-10.08,0-19.06,7.21-20.4,17.19
											c-0.31,2.3-0.21,4.53,0.22,6.65H399v38.47c-4.81,3.64-7.95,9.38-7.95,15.84c0,10.93,8.94,19.87,19.87,19.87h-36.35
											c-10.09,0-19.12,7.2-20.44,17.2c-1.6,12.1,7.89,22.54,19.69,22.54h41.07c-5.85,0-10.6,4.74-10.6,10.6
											c0,5,3.48,9.17,8.14,10.28c0.79,0.19,1.61,0.32,2.46,0.32h5.37h5.16h0.07h22c5.02,0,9.52,3.76,9.78,8.77
											c0.28,5.35-3.97,9.77-9.26,9.77h3.97c-7.75,0-13.94,6.65-13.18,14.55c0.66,6.89,6.84,11.95,13.75,11.95h0.23
											c5.02,0,9.52,3.76,9.78,8.77c0.28,5.35-3.97,9.77-9.26,9.77h-4.72c-4.9,0-5.47,7.39-0.59,7.88
											c0.44,0.04,0.89,0.07,1.34,0.07h42.39c2.11,0,4.1-0.49,5.87-1.37c3.29-1.64,2.18-6.58-1.49-6.58
											c-4.72,0-8.99-3.36-9.59-8.04c-0.64-4.99,2.69-9.33,7.27-10.3c-0.67-0.1-1.35-0.21-2.05-0.21h2.08
											c6.92,0,13.1-5.06,13.75-11.95c0.75-7.9-5.44-14.55-13.19-14.55h-9.27h-5.3c1.07,0,2.12-0.11,3.15-0.28
											c-4.48-1.07-7.71-5.36-7.03-10.3c0.63-4.65,4.88-7.97,9.57-7.97h12.86h1.26c0-0.04,0-0.09,0.01-0.13
											c4.52-0.62,8.01-4.46,8.01-9.15v-2.65c0-4.67-3.46-8.49-7.95-9.14v-0.13h0.58c10.09,0,19.12-7.2,20.44-17.2
											c1.6-12.1-7.89-22.54-19.69-22.54h37.09c11.81,0,21.3-10.44,19.69-22.54C556.47,252.03,547.44,244.83,537.35,244.83z"/>
										<path class="st10" d="M605.43,177.27c0-5.12-4.15-9.27-9.27-9.27h-26.49c-5.12,0-9.27,4.15-9.27,9.27
											c0,5.12,4.15,9.27,9.27,9.27h26.49C601.27,186.55,605.43,182.39,605.43,177.27z"/>
										<path class="st10" d="M630.6,284.58c6.58,0,11.92-5.34,11.92-11.92s-5.34-11.92-11.92-11.92h10.6
											c6.58,0,11.92-5.34,11.92-11.92s-5.34-11.92-11.92-11.92h-34.44c-6.58,0-11.92,5.34-11.92,11.92s5.34,11.92,11.92,11.92
											h-10.6c-6.58,0-11.92,5.34-11.92,11.92s5.34,11.92,11.92,11.92H630.6z"/>
										<path class="st10" d="M671.81,382.6h-49.75c-9.51,0-17.22,7.71-17.22,17.22c0,9.51,7.71,17.22,17.22,17.22h-15.31
											c-9.51,0-17.22,7.71-17.22,17.22c0,9.51,7.71,17.22,17.22,17.22h26.49c-6.58,0-11.92,5.34-11.92,11.92
											s5.34,11.92,11.92,11.92h34.44c6.58,0,11.92-5.34,11.92-11.92s-5.34-11.92-11.92-11.92H656.5
											c9.51,0,17.22-7.71,17.22-17.22c0-9.51-7.71-17.22-17.22-17.22h15.31c9.51,0,17.22-7.71,17.22-17.22
											C689.03,390.31,681.32,382.6,671.81,382.6z"/>
										<path class="st10" d="M665.04,220.99h37.09c12.44,0,22.52-10.08,22.52-22.52c0-12.44-10.08-22.52-22.52-22.52h-37.09
											c-12.44,0-22.52,10.08-22.52,22.52C642.52,210.91,652.6,220.99,665.04,220.99z"/>
										<path class="st10" d="M753.84,320.95c-0.03-0.02-0.05-0.06-0.05-0.09v-54.83h-0.68c2.13-2.57,3.38-5.89,3.33-9.5
											c-0.12-8.08-7.21-14.35-15.3-14.35h-51.53c-8.08,0-15.17,6.26-15.3,14.34c-0.05,3.61,2.65,9.5,2.65,9.5v0.34
											c12.01,1.91,21.2,12.28,21.2,24.83c0,12.55-9.19,22.92-21.2,24.83c-1.3,0.21-2.62,0.34-3.97,0.34h-18.95
											c-12.76,0-23.96,9.63-24.73,22.36c-0.84,13.84,10.14,25.33,23.8,25.33h85.77c12.77,0,23.98-9.64,24.74-22.39
											C764.13,333.15,760.15,325.55,753.84,320.95z"/>
									</g>
								</g>
							</g>
						</g>
						<g class="st11">
							<g>
								<g>
									<path class="st12" d="M463.76,346.72h4.79c-0.67,0-1.32-0.1-1.94-0.25C465.67,346.62,464.73,346.72,463.76,346.72z"/>
									<g>
										<path class="st12" d="M520.79,238.91h-32.87h-1.2v-0.12c-4.06-0.59-7.19-4.04-7.19-8.26c0-4.22,3.13-7.68,7.19-8.26v-0.18
											c10.23-0.69,18.2-10.02,16.55-20.72c-1.36-8.86-9.4-15.16-18.37-15.16h-70.62c-9.11,0-17.24,6.52-18.45,15.55
											c-0.28,2.08-0.19,4.1,0.2,6.01h-0.36v34.79c-4.35,3.29-7.19,8.48-7.19,14.32c0,9.88,8.09,17.97,17.97,17.97H373.6
											c-9.12,0-17.28,6.51-18.48,15.55c-1.45,10.95,7.13,20.38,17.81,20.38h37.13c-5.29,0-9.58,4.29-9.58,9.58
											c0,4.52,3.14,8.29,7.36,9.3c0.72,0.17,1.45,0.29,2.22,0.29h4.85h4.67h0.06h19.89c4.54,0,8.61,3.4,8.85,7.93
											c0.25,4.84-3.59,8.84-8.37,8.84h3.59c-7,0-12.6,6.01-11.92,13.16c0.59,6.23,6.18,10.8,12.44,10.8h0.21
											c4.54,0,8.61,3.4,8.85,7.93c0.25,4.84-3.59,8.84-8.37,8.84h-4.27c-4.43,0-4.95,6.68-0.54,7.13
											c0.4,0.04,0.8,0.06,1.21,0.06h38.33c1.91,0,3.71-0.45,5.31-1.24c2.98-1.48,1.97-5.95-1.35-5.95
											c-4.27,0-8.13-3.03-8.68-7.27c-0.58-4.52,2.43-8.44,6.57-9.31c-0.61-0.09-1.22-0.19-1.85-0.19h1.88
											c6.26,0,11.84-4.57,12.44-10.8c0.68-7.14-4.92-13.16-11.92-13.16h-8.38h-4.79c0.97,0,1.92-0.1,2.85-0.25
											c-4.05-0.97-6.97-4.85-6.36-9.31c0.57-4.21,4.41-7.21,8.65-7.21h11.63h1.14c0-0.04,0-0.08,0.01-0.12
											c4.09-0.56,7.24-4.03,7.24-8.27v-2.4c0-4.22-3.13-7.68-7.19-8.26v-0.12h0.52c9.12,0,17.28-6.51,18.48-15.55
											c1.45-10.95-7.13-20.38-17.81-20.38h33.54c10.68,0,19.26-9.44,17.81-20.38C538.07,245.42,529.91,238.91,520.79,238.91z"/>
										<path class="st12" d="M582.34,177.82c0-4.63-3.75-8.38-8.38-8.38H550c-4.63,0-8.38,3.75-8.38,8.38
											c0,4.63,3.75,8.38,8.38,8.38h23.96C578.59,186.21,582.34,182.45,582.34,177.82z"/>
										<path class="st12" d="M605.1,274.85c5.95,0,10.78-4.83,10.78-10.78c0-5.95-4.83-10.78-10.78-10.78h9.58
											c5.95,0,10.78-4.83,10.78-10.78s-4.83-10.78-10.78-10.78h-31.14c-5.95,0-10.78,4.83-10.78,10.78s4.83,10.78,10.78,10.78
											h-9.58c-5.95,0-10.78,4.83-10.78,10.78c0,5.95,4.83,10.78,10.78,10.78H605.1z"/>
										<path class="st12" d="M616.86,351h-52.22c-9.98,0-18.08,8.09-18.08,18.08c0,9.98,8.09,18.08,18.08,18.08h-16.07
											c-9.98,0-18.08,8.09-18.08,18.08c0,9.98,8.09,18.08,18.08,18.08h27.81c-6.91,0-12.51,5.6-12.51,12.51
											s5.6,12.51,12.51,12.51h36.15c6.91,0,12.51-5.6,12.51-12.51s-5.6-12.51-12.51-12.51h-11.74c9.98,0,18.08-8.09,18.08-18.08
											c0-9.98-8.09-18.08-18.08-18.08h16.07c9.98,0,18.08-8.09,18.08-18.08C634.94,359.09,626.85,351,616.86,351z"/>
										<path class="st12" d="M636.24,217.35h33.54c11.25,0,20.36-9.12,20.36-20.36c0-11.25-9.12-20.36-20.36-20.36h-33.54
											c-11.25,0-20.36,9.12-20.36,20.36C615.88,208.23,625,217.35,636.24,217.35z"/>
										<path class="st12" d="M716.54,307.74c-0.03-0.02-0.04-0.05-0.04-0.08v-49.58h-0.62c1.92-2.33,3.06-5.32,3.01-8.59
											c-0.11-7.31-6.52-12.97-13.83-12.97h-46.6c-7.31,0-13.72,5.66-13.83,12.97c-0.05,3.27,2.39,8.59,2.39,8.59v0.31
											c10.86,1.73,19.17,11.1,19.17,22.45c0,11.34-8.31,20.72-19.17,22.45c-1.17,0.19-2.37,0.31-3.59,0.31H626.3
											c-11.54,0-21.66,8.7-22.36,20.22c-0.76,12.51,9.17,22.9,21.52,22.9h77.56c11.55,0,21.68-8.71,22.37-20.24
											C725.85,318.77,722.25,311.9,716.54,307.74z"/>
									</g>
								</g>
							</g>
						</g>
						<use xlink:href="#SVGID_5_"  style="overflow:visible;fill:none;stroke:#A8DADC;stroke-width:9;stroke-miterlimit:10;"/>
					</g>
				</g>
				<g class="st7">
					<path class="st12" d="M209.1,80.26L209.1,80.26c-0.98,0-1.92,0.14-2.82,0.39c-3.57-6.09-10.16-10.19-17.73-10.19l0,0
						C177.2,70.45,168,79.65,168,91h30.35h10.74h10.74C219.84,85.07,215.03,80.26,209.1,80.26z"/>
					<g class="st13">
						<path class="st14" d="M429.49,78.94L429.49,78.94c-2.28,0-4.44,0.62-6.34,1.73c-4.99-14.28-17.22-24.36-31.51-24.36l0,0
							c-12.49,0-23.39,7.7-29.28,19.17c-1.48-0.46-3.03-0.7-4.63-0.7l0,0C347.94,74.77,340,83.83,340,95l0,0h17.73h17.73h39.96
							h10.13h18.01l0,0C443.56,86.13,437.26,78.94,429.49,78.94z"/>
						<path class="st15" d="M295.66,126.13L295.66,126.13c-1.19,0-2.31,0.33-3.31,0.9c-2.6-7.44-8.98-12.7-16.43-12.7l0,0
							c-6.51,0-12.2,4.02-15.27,9.99c-0.77-0.24-1.58-0.37-2.42-0.37l0,0c-5.11,0-9.24,4.72-9.24,10.55l0,0h9.24h9.24h20.84h5.28
							H303l0,0C303,129.88,299.72,126.13,295.66,126.13z"/>
					</g>
				</g>
			</g>
			<g>
				<path class="st16" d="M520.93,263.96l-1.3-7.35c-1.35-7.63-5.29-14.48-11.15-19.4l-38.64-31.77l5.98-30.88l4.46,3.74
					c1.85,1.55,4.61,1.31,6.16-0.54l7.66-9.13c1.55-1.85,1.31-4.6-0.54-6.16l-6.03-5.05c-2.3-1.92-5.17-2.7-7.93-2.4l13.9-71.8
					c0.78-4.01,0.02-8.17-2.12-11.65l-2.64-4.3c-0.5-0.81-1.68-0.78-2.14,0.04l-58.3,103.96l-49.23-40.48l1.25-35.58
					c0.03-0.91-0.36-1.78-1.05-2.37l-4.34-3.64c-1.57-1.32-3.98-0.67-4.68,1.27l-11.13,31.09c-0.48,1.34,0.06,2.83,1.29,3.55
					l1.17,0.68c-0.37,0.06-0.73,0.15-1.08,0.25l-15.1-6.67c-1.73-0.76-3.35,1.26-2.23,2.78l9.9,13.44
					c-0.02,0.68,0.03,1.37,0.15,2.07l-1.78-2.1c-0.86-1.01-2.31-1.27-3.47-0.61l-29.06,16.6c-1.66,0.95-1.87,3.27-0.4,4.5l4.63,3.88
					c0.65,0.54,1.51,0.76,2.34,0.58l35.38-7.55c0.43-0.09,0.79-0.29,1.1-0.53l73.87,63.78l-26.31-22.51l-92.27,75.61
					c-0.73,0.6-0.55,1.77,0.33,2.12l4.7,1.85c3.8,1.5,8.02,1.52,11.84,0.06l68.27-26.21c0.19,2.77,1.45,5.46,3.74,7.39l6.03,5.05
					c1.85,1.55,4.61,1.31,6.16-0.54l7.66-9.13c1.55-1.85,1.31-4.61-0.54-6.16l-4.46-3.74l29.36-11.27l37.45,32.34
					c6.14,5.14,13.91,7.95,22.03,7.95l6.91,0C519.38,269,521.4,266.59,520.93,263.96z"/>
				<g>
					<g>
						<path class="st10" d="M471.8,151.85l0.86-1.03c3.75-4.47,10.41-5.06,14.88-1.31l6.03,5.05c1.85,1.55,2.09,4.31,0.54,6.16
							l-7.66,9.13c-1.55,1.85-4.31,2.09-6.16,0.54l-7.41-6.21C469.17,161.08,468.69,155.56,471.8,151.85z"/>
						<path class="st10" d="M405.68,230.71l-0.86,1.03c-3.75,4.47-3.16,11.13,1.31,14.88l6.03,5.05c1.85,1.55,4.61,1.31,6.16-0.54
							l7.66-9.13c1.55-1.85,1.31-4.61-0.54-6.16l-7.41-6.21C414.31,226.52,408.79,227,405.68,230.71z"/>
						<path class="st17" d="M360.65,143.41l-6.08-10.09c-4.93-8.19,3.03-18.07,12.08-14.99l11.69,3.98l130.15,107
							c5.86,4.92,9.8,11.77,11.15,19.4l1.3,7.35c0.46,2.63-1.56,5.04-4.22,5.04l-6.91,0c-8.11,0-15.89-2.8-22.03-7.95L360.65,143.41
							z"/>
						<path class="st18" d="M469.83,197.63l23.67-122.3c0.78-4.01,0.02-8.17-2.12-11.65l-2.64-4.3c-0.5-0.81-1.68-0.78-2.14,0.04
							l-58.35,104.05L469.83,197.63z"/>
						<path class="st18" d="M450.41,220.79l-116.3,44.64c-3.81,1.46-8.04,1.44-11.84-0.06l-4.7-1.85c-0.88-0.35-1.06-1.52-0.33-2.12
							l92.27-75.61L450.41,220.79z"/>
						<path class="st19" d="M443.5,215.68l-84.8,32.55c-2.78,1.07-5.86,1.05-8.63-0.04l-3.42-1.35c-0.64-0.25-0.78-1.1-0.24-1.54
							l67.28-55.13L443.5,215.68z"/>
						<path class="st19" d="M465.52,193.39l17.28-89.17c0.57-2.92,0.02-5.96-1.54-8.49l-1.93-3.14c-0.36-0.59-1.22-0.57-1.56,0.03
							l-42.56,75.86L465.52,193.39z"/>
						<g>
							<path class="st18" d="M513.43,250.9l-3.57-2.99c-0.44-0.37-0.72-0.9-0.77-1.48l-0.79-8.98c-0.05-0.56,0.61-0.91,1.04-0.54
								l1.25,1.05c2.01,1.69,3.21,4.15,3.3,6.77l0.21,5.85C514.12,250.92,513.7,251.13,513.43,250.9z"/>
							<path class="st18" d="M510.31,254.62l-3.57-2.99c-0.44-0.37-1.02-0.55-1.59-0.5l-8.98,0.79c-0.56,0.05-0.79,0.76-0.35,1.12
								l1.25,1.05c2.01,1.69,4.64,2.44,7.24,2.07l5.8-0.82C510.46,255.29,510.58,254.85,510.31,254.62z"/>
						</g>
						<path class="st18" d="M379.05,123.04l1.25-35.72c0.03-0.91-0.36-1.78-1.05-2.37l-4.34-3.64c-1.57-1.32-3.98-0.67-4.68,1.27
							l-11.13,31.09c-0.48,1.34,0.06,2.83,1.29,3.55l14.21,8.27C376.55,126.61,378.98,125.27,379.05,123.04z"/>
						<path class="st18" d="M360.86,145.06l-35.38,7.55c-0.83,0.18-1.69-0.04-2.34-0.58l-4.63-3.88c-1.47-1.23-1.26-3.55,0.4-4.5
							l29.06-16.6c1.15-0.66,2.61-0.4,3.47,0.61l10.94,12.93C363.73,142.18,362.89,144.63,360.86,145.06z"/>
						<path class="st18" d="M370.19,132.42l-5.41-11.87c-0.19-0.41-0.52-0.74-0.93-0.92l-18.45-8.15c-1.73-0.76-3.35,1.26-2.23,2.78
							l11.85,16.08c0.23,0.31,0.54,0.54,0.91,0.66l12.02,3.95C369.46,135.44,370.86,133.89,370.19,132.42z"/>
					</g>
					<path class="st16" d="M500.02,224.91l-8.9-2.44c-0.11-0.03-0.2-0.08-0.29-0.15l-98.29-79.79c-0.09-0.08-0.17-0.17-0.22-0.28
						l-4.43-9.51c-0.36-0.76,0.57-1.48,1.22-0.95l111.62,91.74C501.39,224.07,500.85,225.13,500.02,224.91z"/>
					<path class="st16" d="M483.92,247.04l-3.93-8.35c-0.05-0.1-0.11-0.19-0.2-0.26l-95.49-83.12c-0.09-0.08-0.2-0.14-0.31-0.17
						l-10.13-2.73c-0.81-0.22-1.36,0.82-0.72,1.36l109.55,94.2C483.33,248.53,484.28,247.81,483.92,247.04z"/>
				</g>
			</g>
			<g>
				<g>
					<path class="st20" d="M456.91,270.21c0,4.34-6.05,13.2-8.84,17.05c-0.68,0.93-2.07,0.93-2.74,0
						c-2.78-3.85-8.84-12.71-8.84-17.05c0-5.64,4.57-10.21,10.21-10.21C452.34,260,456.91,264.57,456.91,270.21z"/>
					<path class="st14" d="M452.57,269.64c0,3.24-2.62,5.86-5.86,5.86c-3.24,0-5.86-2.62-5.86-5.86c0-3.24,2.62-5.86,5.86-5.86
						C449.94,263.78,452.57,266.4,452.57,269.64z"/>
				</g>
				<g>
					<path class="st20" d="M495.17,333.33c0,8.22-11.46,25.01-16.74,32.3c-1.28,1.77-3.92,1.77-5.19,0
						c-5.27-7.29-16.74-24.08-16.74-32.3c0-10.68,8.66-19.33,19.33-19.33C486.51,314,495.17,322.66,495.17,333.33z"/>
					<circle class="st14" cx="475.83" cy="332.26" r="11.1"/>
				</g>
				<g>
					<path class="st20" d="M578,149.09c0,7.55-10.52,22.96-15.37,29.65c-1.17,1.62-3.59,1.62-4.77,0
						c-4.84-6.69-15.37-22.1-15.37-29.65c0-9.8,7.95-17.75,17.75-17.75S578,139.28,578,149.09z"/>
					<circle class="st14" cx="560.25" cy="148.1" r="10.19"/>
				</g>
				<g>
					<path class="st20" d="M593.91,254.21c0,4.34-6.05,13.2-8.84,17.05c-0.68,0.93-2.07,0.93-2.74,0
						c-2.78-3.85-8.84-12.71-8.84-17.05c0-5.64,4.57-10.21,10.21-10.21C589.34,244,593.91,248.57,593.91,254.21z"/>
					<path class="st14" d="M589.57,253.64c0,3.24-2.62,5.86-5.86,5.86c-3.24,0-5.86-2.62-5.86-5.86c0-3.24,2.62-5.86,5.86-5.86
						C586.94,247.78,589.57,250.4,589.57,253.64z"/>
				</g>
				<g>
					<path class="st20" d="M583.91,346.21c0,4.34-6.05,13.2-8.84,17.05c-0.68,0.93-2.07,0.93-2.74,0
						c-2.78-3.85-8.84-12.71-8.84-17.05c0-5.64,4.57-10.21,10.21-10.21C579.34,336,583.91,340.57,583.91,346.21z"/>
					<path class="st14" d="M579.57,345.64c0,3.24-2.62,5.86-5.86,5.86c-3.24,0-5.86-2.62-5.86-5.86c0-3.24,2.62-5.86,5.86-5.86
						C576.94,339.78,579.57,342.4,579.57,345.64z"/>
				</g>
			</g>
		</g>
	</g>
</g>
<g id="DESIGNED_BY_FREEPIK" class="st0">
</g>
</svg>
