<svg xmlns="http://www.w3.org/2000/svg" viewBox="0 0 378.05 426.72"><defs><style>.cls-1{fill:#1d3557;}.cls-2{fill:#a8dadc;}.cls-3{fill:#e9969a;}.cls-4{fill:#df6970;}.cls-14,.cls-15,.cls-16,.cls-5{fill:none;}.cls-5{stroke:#df6970;}.cls-14,.cls-5{stroke-miterlimit:10;}.cls-6{fill:#66aae2;}.cls-7{fill:#5d9ec9;}.cls-8{fill:#3d79a3;}.cls-9{fill:#73b6f5;}.cls-10{fill:#101d3d;}.cls-11{fill:#ddeded;}.cls-12{fill:#5191bc;}.cls-13{fill:#fff;}.cls-14{stroke:#e9979a;}.cls-15,.cls-16{stroke:#66aae2;stroke-linecap:round;stroke-linejoin:round;}.cls-16{stroke-dasharray:12.13 12.13;}</style></defs><g id="Layer_2" data-name="Layer 2"><g id="BACKGROUND_1" data-name="BACKGROUND 1"><path class="cls-1" d="M194.13,61.25s-21.78,4.34-42.8-10.66-130-6.74-119,95.13,44,61.14,68,106.5S104.17,381.42,231.24,366,312.3,250.28,338.3,218.93s62.09-133.09-11-169.34C259.85,16.13,229.53,29,194.13,61.25Z"/><circle class="cls-1" cx="48.43" cy="249.51" r="16.9" transform="translate(-205.63 257) rotate(-80.71)"/><circle class="cls-1" cx="76.84" cy="288.1" r="5.58"/><circle class="cls-1" cx="182.56" cy="29.01" r="11.5"/><circle class="cls-1" cx="363.68" cy="243.31" r="14.37" transform="translate(-71.41 196.82) rotate(-27.68)"/><path class="cls-1" d="M374.74,206.75a5.11,5.11,0,1,1-5.11-5.11A5.11,5.11,0,0,1,374.74,206.75Z"/><polygon class="cls-2" points="121.13 88.68 143.64 69.02 199.66 64.77 194.21 95.85 141.59 99.83 121.13 88.68"/><polygon class="cls-2" points="89.11 138.76 111.62 119.1 191.19 113.02 185.74 144.09 109.57 149.91 89.11 138.76"/><polygon class="cls-2" points="181.43 168.64 176.11 198.91 127.54 185.13 116.05 168.12 134.96 155.46 181.43 168.64"/><path class="cls-3" d="M203.1,45.18,138.63,404.74A5.44,5.44,0,0,0,143,411l34,.42a5.45,5.45,0,0,0,6.29-4.41L245.65,52.11a11.53,11.53,0,0,0-6.41-12.46,50.49,50.49,0,0,0-24.84-4.84A12.53,12.53,0,0,0,203.1,45.18Z"/><path class="cls-4" d="M239.24,39.65a50.49,50.49,0,0,0-24.84-4.84l-.31,0a52.71,52.71,0,0,1,17.65,4.8,11.53,11.53,0,0,1,6.41,12.46L175.84,407a5.44,5.44,0,0,1-4.1,4.34l5.31.07a5.45,5.45,0,0,0,6.29-4.41L245.65,52.11A11.53,11.53,0,0,0,239.24,39.65Z"/><polygon class="cls-2" points="235.81 62.04 230.35 93.11 339.77 84.82 364.52 68.17 339.58 54.18 235.81 62.04"/><polygon class="cls-2" points="227.36 110.17 221.9 141.25 331.32 132.96 356.07 116.31 331.13 102.31 227.36 110.17"/><polygon class="cls-2" points="217.36 178.83 211.99 209.39 280.4 228.48 306.16 221.12 289.04 199.16 217.36 178.83"/><line class="cls-5" x1="210.13" y1="69.88" x2="199.66" y2="124.55"/><line class="cls-5" x1="220.46" y1="57.22" x2="215.46" y2="82.3"/><line class="cls-5" x1="189.2" y1="245.27" x2="178.73" y2="299.94"/><line class="cls-5" x1="199.53" y1="232.61" x2="194.53" y2="257.69"/><line class="cls-5" x1="157.05" y1="361.47" x2="152.05" y2="386.56"/><line class="cls-5" x1="220.46" y1="82.3" x2="210.13" y2="141.24"/><line class="cls-5" x1="189.13" y1="149.91" x2="173.8" y2="235.55"/><line class="cls-5" x1="186.4" y1="309.66" x2="171.06" y2="395.3"/><line class="cls-5" x1="202.13" y1="152.22" x2="197.13" y2="180.22"/><line class="cls-5" x1="199.63" y1="195.55" x2="194.13" y2="228.48"/><line class="cls-5" x1="169.26" y1="292.38" x2="163.76" y2="325.31"/><polygon class="cls-6" points="350.15 112.99 328.05 127.86 222.85 135.83 221.9 141.25 331.32 132.96 356.07 116.31 350.15 112.99"/><polygon class="cls-7" points="302.55 216.49 277.19 223.73 212.64 205.72 211.99 209.39 280.4 228.48 306.16 221.12 302.55 216.49"/><polygon class="cls-6" points="360.17 65.73 337.38 81.06 231.06 89.12 230.35 93.11 339.77 84.82 364.52 68.17 360.17 65.73"/><polygon class="cls-6" points="194.05 65.2 189.13 93.23 136.76 97.2 141.59 99.83 194.21 95.85 199.66 64.77 194.05 65.2"/><polygon class="cls-6" points="184.99 113.49 180.07 141.51 104.73 147.27 109.57 149.91 185.74 144.09 191.19 113.02 184.99 113.49"/><polygon class="cls-6" points="178.3 167.75 173.41 195.55 125.38 181.93 127.54 185.13 176.11 198.91 181.43 168.64 178.3 167.75"/><path class="cls-8" d="M144.25,83.11A4.15,4.15,0,0,1,148,78.56a3.83,3.83,0,0,1,2.51.89.75.75,0,0,1,.14,1,.57.57,0,0,1-.85.16,2.55,2.55,0,0,0-1.75-.61,2.58,2.58,0,0,0-1.89.93,3.26,3.26,0,0,0-.7,2.18,3.18,3.18,0,0,0,.86,2.12,2.54,2.54,0,0,0,3.65,0,.61.61,0,0,1,.87.08.77.77,0,0,1-.08,1,3.87,3.87,0,0,1-2.43,1.13C146.2,87.5,144.34,85.59,144.25,83.11Z"/><path class="cls-8" d="M156.58,84.74l-2.6.19-.47,1.57A.64.64,0,0,1,153,87a.65.65,0,0,1-.2,0,.66.66,0,0,1-.39-.82c.84-2.87,1.26-4.28,2.11-7.05a.59.59,0,0,1,.55-.42.62.62,0,0,1,.58.38c1,2.69,1.57,4,2.62,6.6a.69.69,0,0,1-.32.85.66.66,0,0,1-.2.06.54.54,0,0,1-.56-.35C156.92,85.61,156.81,85.32,156.58,84.74Zm-.49-1.24c-.38-1-.58-1.45-1-2.43-.31,1-.46,1.52-.77,2.55Z"/><path class="cls-8" d="M160.89,85.63a.64.64,0,0,1-.56.66.56.56,0,0,1-.61-.56c-.09-2.61-.14-3.91-.24-6.52h0a.6.6,0,0,1,.21-.52.58.58,0,0,1,.82.1c1.46,1.94,2.19,2.88,3.64,4.72-.07-1.79-.1-2.68-.17-4.47a.6.6,0,0,1,.56-.61.6.6,0,0,1,.61.56c.09,2.5.14,3.75.23,6.24a.63.63,0,0,1-.56.65.55.55,0,0,1-.45-.17l-.05-.06c-1.44-1.8-2.16-2.73-3.61-4.63Z"/><path class="cls-8" d="M171.72,83.53l-2.59.21c-.19.55-.29.83-.48,1.4a.64.64,0,0,1-.54.42.65.65,0,0,1-.2,0,.55.55,0,0,1-.38-.72c.85-2.57,1.27-3.84,2.13-6.31a.62.62,0,0,1,1.13,0c1,2.38,1.56,3.55,2.59,5.84a.58.58,0,0,1-.32.75.46.46,0,0,1-.21,0,.54.54,0,0,1-.55-.3Zm-.48-1.09-1-2.16c-.31.91-.47,1.36-.78,2.28Z"/><path class="cls-8" d="M174.85,84.38c-.08-2.35-.13-3.52-.22-5.86a.56.56,0,0,1,.57-.57l1.27,0a3.6,3.6,0,0,1,3.86,3.21,3.76,3.76,0,0,1-3.61,3.64l-1.26.11A.54.54,0,0,1,174.85,84.38Zm1.17-.65.66,0a2.56,2.56,0,0,0,2.46-2.5A2.43,2.43,0,0,0,176.51,79l-.67,0C175.91,80.91,176,81.85,176,83.73Z"/><path class="cls-8" d="M185.63,82.55l-2.6.16L182.55,84a.65.65,0,0,1-.54.37.71.71,0,0,1-.21,0,.49.49,0,0,1-.38-.64c.86-2.28,1.3-3.4,2.16-5.58a.61.61,0,0,1,.56-.33.64.64,0,0,1,.58.31c1,2.12,1.54,3.16,2.56,5.19a.5.5,0,0,1-.33.67.88.88,0,0,1-.2,0,.56.56,0,0,1-.56-.28Zm-.48-1-.94-1.92c-.32.79-.48,1.19-.79,2Z"/><path class="cls-8" d="M249.7,121.62c-.16-1.88,1.7-3.5,4.13-3.68a5,5,0,0,1,2.79.56.52.52,0,0,1,.2.8.8.8,0,0,1-1,.15,3.66,3.66,0,0,0-1.93-.41,3.51,3.51,0,0,0-2.1.83,2.07,2.07,0,0,0-.76,1.7,2.3,2.3,0,0,0,1,1.61,3.67,3.67,0,0,0,2.21.66,3.62,3.62,0,0,0,1.61-.41l-.1-1.36-1.71.06a.65.65,0,0,1-.73-.53c0-.31.27-.55.64-.57l2.35-.11h0a.66.66,0,0,1,.74.53c.07.89.1,1.33.17,2.22a.44.44,0,0,1,0,.17l0,0h0a.45.45,0,0,1-.21.25,4.66,4.66,0,0,1-2.66.81C252,125,249.85,123.49,249.7,121.62Z"/><path class="cls-8" d="M260.05,124.33c-.18-2.44-.27-3.65-.46-6.07a.62.62,0,0,1,.62-.62h0l3.88-.31a.62.62,0,0,1,.7.53.64.64,0,0,1-.61.65l-3.25.23.15,1.9,2.79-.15a.66.66,0,0,1,.7.56.62.62,0,0,1-.62.63l-2.79.12.15,1.92,3.24-.09a.67.67,0,0,1,.7.59.61.61,0,0,1-.61.61l-3.88.06h0A.67.67,0,0,1,260.05,124.33Z"/><path class="cls-8" d="M272.91,123.68a.61.61,0,0,1-.36.82,1.09,1.09,0,0,1-.26,0h0a1.06,1.06,0,0,1-.48-.11,1.27,1.27,0,0,1-.41-.39,3.34,3.34,0,0,1-.35-1.35,1,1,0,0,0-.17-.49,1.35,1.35,0,0,0-.38-.31,2.34,2.34,0,0,0-.69-.23l-1.41.06c.06,1,.1,1.45.17,2.41a.61.61,0,0,1-.63.63.67.67,0,0,1-.7-.59c-.19-2.6-.28-3.89-.47-6.46a.64.64,0,0,1,.62-.66h0l2.13-.19a2.44,2.44,0,0,1,2.73,2.22,2.35,2.35,0,0,1-.8,1.93,2.07,2.07,0,0,1,.44.4,2,2,0,0,1,.48,1.22,3.28,3.28,0,0,0,.1.67A.67.67,0,0,1,272.91,123.68Zm-2-4.5a1.18,1.18,0,0,0-1.31-1.08l-1.47.12c.06.91.09,1.36.16,2.27l1.47-.08A1.18,1.18,0,0,0,270.92,119.18Z"/><path class="cls-8" d="M281.62,116.39c.18,2.9.28,4.36.46,7.28a.66.66,0,0,1-.63.7.68.68,0,0,1-.7-.65c-.13-2.06-.2-3.09-.33-5.14-.62,1-.94,1.53-1.56,2.54a.65.65,0,0,1-.53.31h0a.69.69,0,0,1-.57-.25c-.74-.91-1.12-1.36-1.86-2.26.13,2,.19,3,.32,5a.62.62,0,0,1-.62.67.68.68,0,0,1-.7-.62c-.19-2.76-.28-4.14-.46-6.88a.66.66,0,0,1,.61-.7h0a.63.63,0,0,1,.54.22c1,1.21,1.56,1.82,2.6,3.08.86-1.39,1.3-2.1,2.16-3.53a.68.68,0,0,1,.52-.34h0A.67.67,0,0,1,281.62,116.39Z"/><path class="cls-8" d="M288.39,122l-2.91.16L285,123.8a.67.67,0,0,1-.6.46.45.45,0,0,1-.23,0,.72.72,0,0,1-.45-.88c.87-3,1.31-4.53,2.18-7.62a.75.75,0,0,1,.61-.51.65.65,0,0,1,.66.38c1.24,2.9,1.87,4.39,3.11,7.43a.77.77,0,0,1-.34,1l-.23,0a.66.66,0,0,1-.63-.43C288.8,123,288.66,122.62,288.39,122Zm-.58-1.39c-.45-1.09-.68-1.62-1.14-2.69l-.8,2.82Z"/><path class="cls-8" d="M293.25,123.14a.68.68,0,0,1-.6.77.7.7,0,0,1-.7-.7c-.18-3.09-.27-4.63-.45-7.7h0a.78.78,0,0,1,.22-.64.61.61,0,0,1,.92.06c1.69,2.21,2.53,3.35,4.22,5.7-.13-2.27-.2-3.4-.33-5.65a.76.76,0,0,1,.61-.81.65.65,0,0,1,.7.66c.18,3.21.27,4.82.45,8.05a.71.71,0,0,1-.61.79.63.63,0,0,1-.51-.25.24.24,0,0,1-.06-.08c-1.67-2.36-2.51-3.51-4.18-5.74C293.06,119.81,293.12,120.92,293.25,123.14Z"/><path class="cls-8" d="M306,114.31c-.89,1.76-1.34,2.62-2.23,4.32.08,1.55.12,2.33.21,3.89a.73.73,0,0,1-.62.83.74.74,0,0,1-.7-.75c-.08-1.54-.13-2.31-.21-3.85-1.06-1.52-1.59-2.26-2.65-3.73a.84.84,0,0,1,.07-1.08.58.58,0,0,1,.92.06c.89,1.23,1.34,1.84,2.23,3.1.75-1.42,1.12-2.13,1.86-3.59a.62.62,0,0,1,.92-.29A.9.9,0,0,1,306,114.31Z"/><path class="cls-8" d="M230.28,200.84c.63-2.16.94-3.27,1.57-5.53a.76.76,0,0,1,.79-.47h.05l1.61.15a1.76,1.76,0,0,1,1.72,2.15,2,2,0,0,1-.75,1.07,1.91,1.91,0,0,1,.7,2,2.61,2.61,0,0,1-3.08,1.63l-2.07-.38a0,0,0,0,1,0,0h0C230.42,201.39,230.2,201.11,230.28,200.84Zm1.44-.3,1.47.24a1.29,1.29,0,0,0,1.48-.79,1,1,0,0,0-.93-1.2l-1.46-.21C232.05,199.37,231.94,199.76,231.72,200.54Zm.85-3,1,.13a1,1,0,0,0,1.14-.67.74.74,0,0,0-.71-.89l-1-.11C232.83,196.6,232.74,196.91,232.57,197.52Z"/><path class="cls-8" d="M242.71,203a.6.6,0,0,1-.59.65,1.07,1.07,0,0,1-.27,0h0a.9.9,0,0,1-.42-.22,1.06,1.06,0,0,1-.29-.46,2.55,2.55,0,0,1,.08-1.31.86.86,0,0,0,0-.49,1,1,0,0,0-.27-.37,2.13,2.13,0,0,0-.59-.38l-1.38-.26c-.23.9-.35,1.34-.58,2.23a.66.66,0,0,1-.8.41.57.57,0,0,1-.5-.68c.63-2.36.95-3.57,1.58-6a.7.7,0,0,1,.79-.49h0l2.08.27a2.21,2.21,0,0,1,1.93,2.73,2.45,2.45,0,0,1-1.35,1.61,1.8,1.8,0,0,1,.31.48,1.86,1.86,0,0,1,.1,1.24,2.42,2.42,0,0,0-.11.64A.6.6,0,0,1,242.71,203Zm-.56-4.65a1.07,1.07,0,0,0-.93-1.32l-1.43-.2c-.22.86-.33,1.3-.55,2.15l1.43.25A1.28,1.28,0,0,0,242.15,198.35Z"/><path class="cls-8" d="M249,203.53l-2.85-.69c-.36.53-.55.79-.92,1.31a.65.65,0,0,1-.7.23.66.66,0,0,1-.21-.08.63.63,0,0,1-.2-.88c1.67-2.33,2.5-3.55,4.16-6.11a.74.74,0,0,1,.71-.3.64.64,0,0,1,.53.52c.4,3,.61,4.47,1,7.51a.65.65,0,0,1-.81.71.72.72,0,0,1-.5-.57C249.14,204.52,249.1,204.19,249,203.53Zm-.19-1.39c-.15-1.08-.22-1.62-.37-2.69-.61.92-.92,1.37-1.52,2.26Z"/><path class="cls-8" d="M259.83,200.39c-2.26,2.2-3.39,3.24-5.65,5.2,1.51.42,2.26.64,3.77,1.1a.78.78,0,0,1,.5.91.6.6,0,0,1-.8.49c-2-.64-3-.94-5-1.53a.34.34,0,0,1-.11-.05l0,0-.08,0s0,0,0-.05l-.05,0,0,0h0s0,0,0,0l0-.08,0,0a.33.33,0,0,0,0-.06.23.23,0,0,1,0-.07s0,0,0-.07,0-.05,0-.08,0,0,0,0,0-.06,0-.08v0h0s0-.06,0-.08a.22.22,0,0,0,0-.06s0,0,0,0a.11.11,0,0,1,0-.06s0,0,0,0l0,0h0c2.25-1.93,3.38-2.95,5.63-5.12-1.51-.36-2.26-.53-3.77-.86a.7.7,0,0,1,.29-1.37c2,.4,3,.62,5,1.08h0l.09,0,0,0,.07,0,0,0,.05.06.05.05h0a.13.13,0,0,1,0,0s0,.05,0,.06a.33.33,0,0,0,0,.06.09.09,0,0,1,0,.07.24.24,0,0,0,0,.07s0,0,0,.06a.2.2,0,0,0,0,.08.08.08,0,0,1,0,.07.11.11,0,0,1,0,.08s0,0,0,.06,0,.06,0,.09a.06.06,0,0,0,0,0s0,0,0,.07,0,0,0,.07l0,0-.05.05S259.83,200.39,259.83,200.39Z"/><path class="cls-8" d="M262,200.46a.67.67,0,0,1,.79-.58.77.77,0,0,1,.51.91c-.63,3.19-.94,4.76-1.57,7.85a.61.61,0,0,1-.8.5.79.79,0,0,1-.5-.92C261,205.16,261.33,203.61,262,200.46Z"/><path class="cls-8" d="M263.88,209.37c.63-3.15.94-4.76,1.57-8a.68.68,0,0,1,.79-.6.82.82,0,0,1,.51,1c-.57,3-.86,4.45-1.43,7.35,1.27.43,1.9.66,3.17,1.11a.92.92,0,0,1,.5,1,.62.62,0,0,1-.79.53c-1.52-.57-2.28-.84-3.79-1.37h0A.84.84,0,0,1,263.88,209.37Z"/><path class="cls-8" d="M256.16,76.19l-2.91.08c-.19.5-.28.74-.48,1.24a.63.63,0,0,1-.59.34.85.85,0,0,1-.23,0c-.36-.1-.55-.39-.45-.67.86-2.22,1.29-3.35,2.16-5.66a.7.7,0,0,1,.6-.37.72.72,0,0,1,.67.29c1.25,2.19,1.87,3.31,3.12,5.61a.5.5,0,0,1-.33.72.75.75,0,0,1-.23,0,.74.74,0,0,1-.64-.33C256.58,76.93,256.44,76.68,256.16,76.19Zm-.58-1-1.14-2-.8,2.1Z"/><path class="cls-8" d="M265.23,76.74a.53.53,0,0,1-.36.74,1.09,1.09,0,0,1-.26,0h0a1.18,1.18,0,0,1-.48-.1,1.25,1.25,0,0,1-.41-.35,2.81,2.81,0,0,1-.35-1.23.74.74,0,0,0-.18-.43,1.16,1.16,0,0,0-.38-.29,2.37,2.37,0,0,0-.69-.21L260.7,75c.07.87.1,1.31.18,2.18a.59.59,0,0,1-.63.57.65.65,0,0,1-.7-.54c-.2-2.35-.29-3.53-.49-5.86a.61.61,0,0,1,.62-.6h0l2.13-.16a2.43,2.43,0,0,1,2.74,2,2,2,0,0,1-.81,1.74,1.55,1.55,0,0,1,.45.36,1.83,1.83,0,0,1,.49,1.1,2.94,2.94,0,0,0,.09.61A.66.66,0,0,1,265.23,76.74Zm-2-4.07a1.18,1.18,0,0,0-1.32-1l-1.47.09c.07.83.1,1.24.17,2.07l1.47-.07A1.13,1.13,0,0,0,263.23,72.67Z"/><path class="cls-8" d="M266.58,73.79c-.17-2.11,1.69-3.94,4.12-4.15a4.68,4.68,0,0,1,2.79.63.6.6,0,0,1,.2.88.74.74,0,0,1-1,.17,3.29,3.29,0,0,0-1.94-.44,3.23,3.23,0,0,0-2.09.93,2.48,2.48,0,0,0-.76,1.91,2.58,2.58,0,0,0,1,1.79,3.41,3.41,0,0,0,3.82.22c0-.61-.07-.91-.11-1.51l-1.71.09a.67.67,0,0,1-.73-.58.63.63,0,0,1,.64-.64l2.35-.15h0a.67.67,0,0,1,.74.58c.07,1,.11,1.47.18,2.45a.55.55,0,0,1,0,.19l0,0h0a.51.51,0,0,1-.21.28,4.47,4.47,0,0,1-2.65,1C268.86,77.52,266.74,75.89,266.58,73.79Z"/><path class="cls-8" d="M276.94,76.64c-.19-2.67-.29-4-.48-6.65a.65.65,0,0,1,.61-.68h0L281,69a.65.65,0,0,1,.71.58.69.69,0,0,1-.62.71l-3.24.26.15,2.08,2.79-.19a.67.67,0,0,1,.7.6.64.64,0,0,1-.61.69l-2.79.17.15,2.09c1.3-.06,1.95-.08,3.25-.15a.7.7,0,0,1,.7.63.65.65,0,0,1-.61.67l-3.88.14h0A.67.67,0,0,1,276.94,76.64Z"/><path class="cls-8" d="M285.36,76.29a.64.64,0,0,1-.6.68.68.68,0,0,1-.71-.62c-.19-2.76-.28-4.13-.47-6.87h0a.65.65,0,0,1,.22-.57.66.66,0,0,1,.92.06c1.69,2,2.54,3,4.23,5.08-.14-2-.2-3-.34-5a.68.68,0,0,1,.61-.72.65.65,0,0,1,.7.59c.19,2.85.28,4.28.47,7.15a.65.65,0,0,1-.61.71.67.67,0,0,1-.51-.22l-.06-.07c-1.68-2.1-2.52-3.13-4.19-5.12C285.15,73.31,285.22,74.3,285.36,76.29Z"/><path class="cls-8" d="M297.83,68.72l-1.9.19c.18,2.72.26,4.08.44,6.82a.67.67,0,0,1-.62.73.69.69,0,0,1-.7-.66c-.17-2.71-.26-4.07-.44-6.77l-1.89.18a.65.65,0,0,1-.7-.63.69.69,0,0,1,.61-.75l5.11-.54a.65.65,0,0,1,.7.64A.73.73,0,0,1,297.83,68.72Z"/><path class="cls-8" d="M300.51,67.72a.71.71,0,0,1,.61-.79.67.67,0,0,1,.72.65c.19,3.11.28,4.67.48,7.8a.71.71,0,0,1-.63.77.69.69,0,0,1-.7-.69C300.8,72.35,300.7,70.81,300.51,67.72Z"/><path class="cls-8" d="M305.87,75.16a.66.66,0,1,1-1.3.08c-.19-3.12-.29-4.68-.48-7.78h0a.83.83,0,0,1,.23-.65.61.61,0,0,1,.92.06c1.69,2.23,2.54,3.38,4.23,5.72-.14-2.27-.2-3.41-.34-5.67a.76.76,0,0,1,.6-.82.68.68,0,0,1,.71.67c.19,3.22.28,4.83.47,8.06a.72.72,0,0,1-.61.81.63.63,0,0,1-.51-.25l-.06-.07c-1.68-2.36-2.52-3.51-4.2-5.76C305.67,71.79,305.74,72.91,305.87,75.16Z"/><path class="cls-8" d="M318,72.72l-2.91.24c-.19.76-.29,1.14-.48,1.89a.69.69,0,0,1-.59.54.8.8,0,0,1-.23,0,.85.85,0,0,1-.46-1c.87-3.39,1.3-5.11,2.17-8.59a.77.77,0,0,1,.6-.58.65.65,0,0,1,.67.43c1.25,3.24,1.87,4.89,3.12,8.25a.9.9,0,0,1-.33,1.08.7.7,0,0,1-.23.06.66.66,0,0,1-.64-.46C318.39,73.82,318.25,73.45,318,72.72Zm-.58-1.54c-.46-1.21-.69-1.8-1.15-3-.31,1.27-.47,1.9-.79,3.16Z"/><path class="cls-8" d="M142.7,180.46c-1.91-.19-3.16-2.42-2.85-4.76.28-2.1.43-3.13.71-5.18a.6.6,0,0,1,.76-.58.91.91,0,0,1,.55,1c-.28,2-.42,3-.71,5.07a2.44,2.44,0,0,0,1.76,2.9,2.38,2.38,0,0,0,2.46-2.17c.28-1.92.42-2.86.7-4.73a.63.63,0,0,1,.77-.56.73.73,0,0,1,.55.84c-.29,1.83-.43,2.75-.71,4.62C146.37,179,144.59,180.66,142.7,180.46Z"/><path class="cls-8" d="M149,178.6a.61.61,0,0,1,.88,0,3.25,3.25,0,0,0,2.11,1,3,3,0,0,0,1.55-.41,1.23,1.23,0,0,0,.65-.8.57.57,0,0,0,0-.37.87.87,0,0,0-.3-.36,4.69,4.69,0,0,0-1.52-.65h0a5.59,5.59,0,0,1-1.45-.6,2.33,2.33,0,0,1-.94-1.07,2,2,0,0,1-.11-1.05,2.23,2.23,0,0,1,1.24-1.61,3.51,3.51,0,0,1,2.15-.25,5.16,5.16,0,0,1,2.42,1.3.53.53,0,0,1,0,.78.66.66,0,0,1-.87.06,3.56,3.56,0,0,0-1.78-1,2.38,2.38,0,0,0-1.39.19,1,1,0,0,0-.57.69.48.48,0,0,0,0,.34,1,1,0,0,0,.26.35,3.51,3.51,0,0,0,1.39.69h0a7.37,7.37,0,0,1,1.55.63,2.43,2.43,0,0,1,1,1,1.59,1.59,0,0,1,.12,1,2.75,2.75,0,0,1-1.33,1.72,4.37,4.37,0,0,1-2.3.68,4,4,0,0,1-2.83-1.29A.73.73,0,0,1,149,178.6Z"/><path class="cls-8" d="M161.17,179.09c-1.15,0-1.73-.05-2.88-.07l-.84,1.35a.85.85,0,0,1-.68.39.78.78,0,0,1-.22,0,.51.51,0,0,1-.25-.77,61.1,61.1,0,0,1,3.79-5.81.75.75,0,0,1,.69-.23.68.68,0,0,1,.56.43c.58,2.33.87,3.45,1.44,5.61.07.26-.16.55-.53.66a.8.8,0,0,1-.23,0,.51.51,0,0,1-.53-.32C161.36,179.83,161.29,179.59,161.17,179.09ZM160.9,178c-.21-.84-.32-1.26-.53-2.13-.56.78-.83,1.19-1.39,2Z"/><path class="cls-8" d="M118,135.81l-2.76.37c-.18.75-.27,1.13-.44,1.9a.75.75,0,0,1-.56.58.79.79,0,0,1-.22,0,.81.81,0,0,1-.44-1c.79-3.48,1.18-5.2,2-8.59a.69.69,0,0,1,.58-.54.63.63,0,0,1,.63.43c1.22,3.19,1.83,4.76,3.05,7.82a.87.87,0,0,1-.31,1,.52.52,0,0,1-.22.07.56.56,0,0,1-.61-.39Zm-.57-1.46c-.45-1.14-.67-1.72-1.11-2.88-.29,1.24-.44,1.86-.73,3.11Z"/><path class="cls-8" d="M124.39,137.19c-1.83.25-3.4-1.29-3.55-3.44-.13-1.92-.19-2.88-.32-4.81a.69.69,0,0,1,.58-.8.68.68,0,0,1,.68.69c.13,1.92.2,2.87.33,4.78a2.08,2.08,0,0,0,2.18,2.12,2.35,2.35,0,0,0,1.86-2.57c-.13-1.85-.19-2.78-.32-4.65a.64.64,0,1,1,1.26-.09c.13,1.85.19,2.77.32,4.6A3.82,3.82,0,0,1,124.39,137.19Z"/><path class="cls-8" d="M129.94,134.23a.56.56,0,0,1,.82-.18,3.45,3.45,0,0,0,2.24.71,2.52,2.52,0,0,0,1.39-.62,1.18,1.18,0,0,0,.42-.93.75.75,0,0,0-.13-.38,1.13,1.13,0,0,0-.37-.34,4.32,4.32,0,0,0-1.6-.42h0a5.24,5.24,0,0,1-1.5-.35,2.4,2.4,0,0,1-1.13-.89,2.13,2.13,0,0,1-.34-1,2.43,2.43,0,0,1,.78-1.92,3.09,3.09,0,0,1,1.92-.8,4.37,4.37,0,0,1,2.55.84.69.69,0,0,1,.22.86.56.56,0,0,1-.79.24,3.17,3.17,0,0,0-1.89-.66,2,2,0,0,0-1.24.51,1.05,1.05,0,0,0-.38.83.63.63,0,0,0,.11.35,1.1,1.1,0,0,0,.33.3,3.78,3.78,0,0,0,1.46.43h0a6.79,6.79,0,0,1,1.61.38,2.74,2.74,0,0,1,1.21.91,2.1,2.1,0,0,1,.35,1,2.53,2.53,0,0,1-.84,2,3.6,3.6,0,0,1-2,.95,4.39,4.39,0,0,1-3-.89A.72.72,0,0,1,129.94,134.23Z"/><path class="cls-8" d="M142.08,128.11l-1.81.11c.19,2.51.29,3.76.49,6.25a.66.66,0,0,1-.58.71.59.59,0,0,1-.67-.57c-.2-2.52-.3-3.78-.49-6.31l-1.79.11a.66.66,0,0,1-.68-.63.62.62,0,0,1,.57-.7l4.86-.26a.65.65,0,0,1,.67.61A.63.63,0,0,1,142.08,128.11Z"/><path class="cls-8" d="M150.29,133.17a.59.59,0,0,1-.33.79.82.82,0,0,1-.25.06h0a.86.86,0,0,1-.45-.07,1,1,0,0,1-.4-.35,3.24,3.24,0,0,1-.35-1.29,1,1,0,0,0-.17-.46,1.11,1.11,0,0,0-.37-.29,2.16,2.16,0,0,0-.66-.21l-1.34.11.2,2.43a.65.65,0,0,1-.59.68.6.6,0,0,1-.67-.55c-.21-2.66-.32-4-.54-6.68a.61.61,0,0,1,.58-.66h0l2-.09a2.51,2.51,0,0,1,2.63,2.24,2.26,2.26,0,0,1-.74,1.85,1.55,1.55,0,0,1,.43.38,1.93,1.93,0,0,1,.47,1.14,4.07,4.07,0,0,0,.1.64A.56.56,0,0,1,150.29,133.17Zm-1.95-4.26a1.2,1.2,0,0,0-1.27-1.08l-1.39.07c.07.93.11,1.39.18,2.32l1.4-.1A1.14,1.14,0,0,0,148.34,128.91Z"/><path class="cls-8" d="M156.11,131.78l-2.76.23c-.17.57-.26.85-.44,1.42a.65.65,0,0,1-.56.43.74.74,0,0,1-.21,0,.58.58,0,0,1-.44-.73c.79-2.61,1.18-3.89,2-6.41a.62.62,0,0,1,.57-.39.71.71,0,0,1,.64.35c1.21,2.41,1.82,3.59,3,5.88a.57.57,0,0,1-.31.77l-.21.05a.61.61,0,0,1-.61-.31C156.52,132.55,156.38,132.3,156.11,131.78Zm-.56-1.1c-.45-.86-.67-1.29-1.12-2.17-.29.92-.43,1.38-.72,2.31Z"/><path class="cls-8" d="M159.5,132.62c-.22-2.35-.33-3.53-.54-5.9a.54.54,0,0,1,.57-.57.65.65,0,0,1,.69.53c.19,2.12.29,3.18.49,5.28l3.07-.24a.61.61,0,0,1,.68.48.58.58,0,0,1-.57.58l-3.69.33h0A.58.58,0,0,1,159.5,132.62Z"/><path class="cls-8" d="M165.49,126.53c0-.29.22-.52.58-.53a.65.65,0,0,1,.68.5c.22,2.21.32,3.3.54,5.48,0,.29-.25.53-.59.56a.58.58,0,0,1-.67-.46C165.81,129.87,165.71,128.76,165.49,126.53Z"/><path class="cls-8" d="M173.37,130.58l-2.76.17c-.18.47-.26.71-.44,1.2a.65.65,0,0,1-.56.36.79.79,0,0,1-.22,0,.5.5,0,0,1-.44-.63c.79-2.21,1.19-3.29,2-5.42a.61.61,0,0,1,.57-.32.76.76,0,0,1,.63.3c1.22,2.07,1.83,3.08,3.05,5,.14.24,0,.52-.31.64l-.21,0a.68.68,0,0,1-.62-.26Zm-.57-.93c-.44-.74-.67-1.11-1.11-1.86-.29.77-.44,1.16-.73,2Z"/><path class="cls-9" d="M266.92,228.94l-10,35.12s1.19.09,5.18.34l9.32-35.46Z"/><path class="cls-9" d="M298.32,228.94l-11.68,40.91s.85.35,4.78,2.17l11.4-43.08Z"/><path class="cls-10" d="M266.7,228.94h4.7a1.28,1.28,0,0,0,1.26-1.06c.23-1.29.4-3.19,1.63-4.27,1.39-1.23,18.09-1.59,21.46,0a3.67,3.67,0,0,1,2,4.39.78.78,0,0,0,.76.94h4.8a1.35,1.35,0,0,0,1.34-1.14,10.89,10.89,0,0,0-.3-4.19c-.88-3.55-3.77-7-21-6.17-14.6.72-15.62,3.15-17.47,10.49A.82.82,0,0,0,266.7,228.94Z"/><polygon class="cls-6" points="300.92 228.94 289.57 271.13 291.42 272.02 302.82 228.94 300.92 228.94"/><polygon class="cls-6" points="271.4 228.94 262.1 264.4 259.42 264.4 269.5 228.94 271.4 228.94"/><path class="cls-11" d="M205.91,266c10.78-1.93,33.22-4.48,65.85-.82a15.37,15.37,0,0,1,13.11,19.17L250.19,416.91a12.67,12.67,0,0,1-11.57,9.44c-14.85.83-44.54,1-67-8.26A12.88,12.88,0,0,1,164.11,403l32.74-128.56A11.44,11.44,0,0,1,205.91,266Z"/><path class="cls-2" d="M297.92,275.61a77.8,77.8,0,0,0-21.64-9.2,15.39,15.39,0,0,1,8.59,17.93L250.19,416.91a12.65,12.65,0,0,1-10.5,9.33,229.17,229.17,0,0,0,27.58.11,12.68,12.68,0,0,0,11.57-9.44l29.41-114C310.62,293.89,306.2,280.65,297.92,275.61Z"/><path class="cls-10" d="M274.2,385.56c-1.17,3.83-3,6.66-4.16,6.32s-1.11-3.73,0-7.56,3-6.66,4.16-6.32S275.36,381.73,274.2,385.56Z"/><path class="cls-10" d="M290.37,319.62c-1.16,3.83-3,6.66-4.16,6.31s-1.1-3.72.06-7.56,3-6.65,4.16-6.31S291.54,315.79,290.37,319.62Z"/><path class="cls-12" d="M206.14,289.67a193,193,0,0,0-6.87,26.13,6.88,6.88,0,0,0,5.75,8.1c10.62,1.56,31.58,3.88,49.63,1.31a7.2,7.2,0,0,0,5.72-4.68,151.26,151.26,0,0,0,7.57-29,6.34,6.34,0,0,0-5.39-7.2,182.32,182.32,0,0,0-49.89-.06A8.18,8.18,0,0,0,206.14,289.67Z"/><path class="cls-13" d="M203.8,287.59a191.77,191.77,0,0,0-6.87,26.14,6.87,6.87,0,0,0,5.75,8.1c10.62,1.55,31.58,3.87,49.62,1.31a7.2,7.2,0,0,0,5.73-4.68,151.19,151.19,0,0,0,7.57-29.06,6.35,6.35,0,0,0-5.39-7.2,182.43,182.43,0,0,0-49.89-.05A8.15,8.15,0,0,0,203.8,287.59Z"/><path class="cls-12" d="M192.08,345.48c-1.81,5.25-12.34,43-13.21,59.3-.2,3.91,1.88,7.53,5.76,8.1,10.61,1.56,31.58,3.87,49.62,1.31,2.62-.37,4.48-2.34,5.72-4.68,6.28-11.82,12.25-50.48,13.91-62.22a6.35,6.35,0,0,0-5.4-7.2A182.25,182.25,0,0,0,198.6,340,8.16,8.16,0,0,0,192.08,345.48Z"/><path class="cls-13" d="M189.58,343.48c-1.81,5.25-12.34,43-13.21,59.3-.2,3.91,1.88,7.53,5.76,8.1,10.61,1.56,31.58,3.87,49.62,1.31,2.62-.37,4.48-2.34,5.72-4.68,6.28-11.82,12.25-50.48,13.91-62.22a6.35,6.35,0,0,0-5.4-7.2A182.25,182.25,0,0,0,196.1,338,8.16,8.16,0,0,0,189.58,343.48Z"/><path class="cls-14" d="M202.25,292.34s40.56-.93,62.66,1.33"/><path class="cls-14" d="M186.92,352.49s42.8.89,63.19,1.29"/><path class="cls-4" d="M253.92,292.86s-3.08,4.33-3.08,8.75,3.5,3.08,4,0S253.92,292.86,253.92,292.86Z"/><path class="cls-4" d="M240.72,353.14s-3.08,4.33-3.08,8.75,3.5,3.08,4,0S240.72,353.14,240.72,353.14Z"/><path class="cls-4" d="M223.15,263.9s5.07-5.79,16.54-6.71,18.76,4.16,20.16,6.87c0,0-9.18-.53-10.51-.57a15.56,15.56,0,0,0-10.59-2.22,26.51,26.51,0,0,0-7.41,2.1S226,263.67,223.15,263.9Z"/><path class="cls-12" d="M277.14,266.84a1.76,1.76,0,0,0-.14-.23l-.72-.2C276.57,266.54,276.86,266.69,277.14,266.84Z"/><path class="cls-12" d="M297.92,275.61l-.32-.19c4.36,6.25,6.26,15.08,4.54,21.68l-29.42,114c-1.39,5.33-5.76,9.25-10.77,11.54a52.23,52.23,0,0,1-16.23,3.95c8.48.32,16,.1,21.55-.21a12.68,12.68,0,0,0,11.57-9.44l29.41-114C310.62,293.89,306.2,280.65,297.92,275.61Z"/><path class="cls-15" d="M44.51,68.6q-2.05,2.07-4.1,4.37"/><path class="cls-16" d="M32.89,82.48c-45.5,63.71-67.64,213.81,105.44,255.62"/><path class="cls-15" d="M144.24,339.47q2.89.64,5.87,1.25"/><path class="cls-6" d="M107.13,81.54c-1.3-4.73-4.33-15.31-4.33-15.31l-.25-.87a11.71,11.71,0,0,0,1.93-1.88c2.06-2.5,2.81-5.29,1.67-6.23s-3.32.14-5.28,2.24L97.06,46.11A11.71,11.71,0,0,0,99.29,44c2.06-2.5,2.8-5.29,1.66-6.23s-3.53.23-5.54,2.54l-4.3-15.07S107,5.77,103.46.2C97.32-2.16,81.25,17.13,81.25,17.13L65.63,15.81c1.88-2.42,2.53-5,1.43-5.93s-3.73.33-5.79,2.84a11.29,11.29,0,0,0-1.63,2.59L45.77,14.14C47.46,11.81,48,9.4,47,8.53s-3.73.33-5.79,2.84a11.53,11.53,0,0,0-1.47,2.25l-.9-.07s-11-.94-15.86-1.31a8.75,8.75,0,0,0-7.49,3.26L64.87,36.56C53.22,50.25,48.52,59.47,48.52,59.47L31.16,57.88l-3.77,4.59L42.8,69c-2.67,5.12-1.37,6.58-1.37,6.58s1.68,1,6.18-2.61L57,86.83l3.78-4.59-4.9-16.73S64,59.13,75.2,45.06l30.17,44.46A8.77,8.77,0,0,0,107.13,81.54Z"/></g></g></svg>